# xmcd
# 
# Track frame offsets:
#     150
#     15460
#     35597
#     50002
# 
# Disc length: 911
# 
# Revision: 0
# Processed by: cddbd v1.5.2PL0 Copyright (c) Steve Scherf et al.
# Submitted via: fre:ac v1.0.17
# 
DISCID=2b038d04
DTITLE=Zebulon - Cape Canaria
DYEAR=2000
DGENRE=Stoner Rock
TTITLE0=Overflown
TTITLE1=The Day
TTITLE2=Burning Fuel
TTITLE3=Goddamned
EXTD=
EXTT0=
EXTT1=
EXTT2=
EXTT3=
PLAYORDER=
